PathFileType	4	(X/Y/Z)	C:\Users\WrightLab\Desktop\Jo\P1.2Trial16.trc
DataRate	CameraRate	NumFrames	NumMarkers	Units	OrigDataRate	OrigDataStartFrame	OrigNumFrames
100.00	100.00	       10	19	mm	100.00	290	       463
Frame#	Time	Headset_Front			Headset_Back			Headset_Left			Headset_Right			Left_Shoulder			Right_Shoulder			Sternum			C7			Left Elbow			Right Elbow			Left Wrist			Right Wrist			Left ASIS			Right ASIS			S2			Left Knee			Right Knee			Left Ankle			Right Ankle			
		X1	Y1	Z1	X2	Y2	Z2	X3	Y3	Z3	X4	Y4	Z4	X5	Y5	Z5	X6	Y6	Z6	X7	Y7	Z7	X8	Y8	Z8	X9	Y9	Z9	X10	Y10	Z10	X11	Y11	Z11	X12	Y12	Z12	X13	Y13	Z13	X14	Y14	Z14	X15	Y15	Z15	X16	Y16	Z16	X17	Y17	Z17	X18	Y18	Z18	X19	Y19	Z19	

290	2.890	-20.37936	1405.48706	1840.21875				155.05151	1479.58960	1748.67444				309.83530	1285.84009	1727.48450	-87.85668	1255.64160	1563.48474	72.84176	1205.90735	1768.33887	144.44221	1324.22327	1547.34521	430.04495	1020.67126	1774.46313	-95.98150	1028.78198	1437.71570	450.32019	847.16486	1940.49182	-192.20903	804.38086	1357.85193	230.12523	904.36145	1793.79871	-34.32526	872.80634	1725.81787	184.32454	925.99719	1486.38037	297.70035	456.30957	1711.85535	-33.13770	500.60709	1819.59070	356.74969	153.52507	1521.51904	-67.62964	208.39020	1944.75793	
291	2.900	-26.86790	1404.96814	1846.49268				149.53601	1477.98010	1757.19507				304.95590	1284.07837	1735.81616	-92.54661	1253.13318	1571.67700	67.65868	1204.09155	1777.41821	139.70941	1322.00952	1556.09509	424.52328	1017.55457	1782.87927	-97.97072	1026.51343	1444.83862	443.13623	844.15955	1948.82092	-191.06914	801.85596	1363.01062	225.99947	903.52246	1803.63696	-38.60656	870.92664	1736.18127	179.51178	922.77405	1495.84241	293.50699	455.53424	1717.11548	-37.24662	501.42230	1831.84790	356.02557	155.83853	1524.56738	-69.16701	202.19389	1950.55920	
292	2.910	-32.93570	1404.77429	1854.65320				144.24815	1477.07776	1765.25159				299.83859	1282.19067	1744.61890	-97.36784	1250.66919	1579.49255	62.42109	1203.48083	1785.82153	134.32005	1320.67969	1563.54443	417.94635	1015.40381	1789.77563	-99.91847	1024.00476	1453.32642	434.66916	841.55615	1957.85608	-190.50940	799.43915	1369.64026	222.01749	903.20514	1814.31970	-42.03848	868.38068	1744.43640	176.30305	920.68036	1506.69958	294.02539	454.39450	1727.78516	-42.44978	500.88898	1843.58240	356.01706	156.11156	1526.21753	-71.09859	195.28767	1955.48340	
293	2.920	-39.27808	1405.16040	1861.62659				139.02235	1475.53137	1773.22961				294.20380	1280.30750	1753.55017	-101.98505	1248.01416	1586.11292	56.37495	1201.81287	1795.55823	129.20712	1318.60193	1572.62158	411.38885	1011.46826	1795.60449	-102.06363	1020.10974	1463.24097	426.91055	837.72577	1965.12659	-190.01276	796.47644	1376.28833	217.27290	901.88550	1824.20422	-46.84744	867.08319	1754.69360	172.57487	918.23712	1517.94861	292.29596	455.15967	1738.94312	-46.79936	500.10602	1854.88232	355.54352	159.10577	1529.37585	-72.77681	186.92128	1957.35767	
294	2.930	-45.49898	1404.87842	1867.33569				133.55746	1474.39771	1780.81934				288.46841	1278.80066	1761.87537	-107.25836	1245.84717	1594.35425	49.94831	1201.23828	1803.99866	124.01962	1317.07397	1581.12598	404.36966	1010.02582	1805.01294	-105.73933	1017.74677	1469.33899	419.57468	833.64050	1970.95874	-190.08038	793.22247	1383.70532	212.12509	900.74670	1834.48242	-51.01950	865.17157	1763.12512	167.96796	915.71631	1529.11841	288.99374	452.10724	1745.06921	-51.53841	498.89337	1867.31433	355.48376	160.81947	1532.13538	-73.73299	180.90413	1961.37988	
295	2.940	-51.59711	1405.74939	1875.07056				128.13974	1473.28186	1787.76196				282.84952	1277.30188	1771.11121	-112.02550	1243.51819	1600.71155	43.26944	1199.73572	1812.23193	118.95498	1315.57825	1589.35608	397.68475	1008.43811	1812.69287	-108.36814	1014.45862	1478.73645	411.72549	829.96790	1976.75537	-190.41179	790.19830	1391.51648	207.76492	900.94836	1845.19336	-56.14872	863.83258	1772.98694	164.59512	914.65729	1539.98132	284.36795	452.53806	1754.55566	-55.98011	496.90225	1878.63269	354.45667	163.35358	1535.07874	-75.40956	176.16733	1963.87097	
296	2.950	-58.56810	1405.79370	1880.48157				122.09540	1473.28247	1796.14661				276.33105	1276.42444	1779.10754	-117.17246	1241.54065	1608.41724	36.67894	1199.36963	1821.14099	113.20959	1313.95508	1598.83386	391.09439	1005.96191	1819.83655	-111.46215	1011.79718	1488.00720	403.33636	826.22266	1981.96545	-191.45749	786.83502	1400.42468	202.90480	901.07562	1856.50488	-61.72894	862.84583	1783.44128	160.54587	912.86810	1551.17542	280.72299	452.19580	1764.75000	-60.32495	493.28516	1887.80469	354.67557	166.37090	1538.34509	-78.60997	176.72749	1971.76404	
297	2.960	-64.95285	1407.21252	1888.66162				116.61784	1473.03088	1804.00232				270.25552	1274.88367	1788.63660	-122.40833	1239.72876	1615.45093	29.77483	1200.10828	1831.45142	107.34256	1312.34302	1606.56824	382.23911	1003.44867	1824.68860	-114.68383	1009.17407	1495.28796	395.25143	822.42004	1986.92920	-192.31284	783.36554	1409.90759	196.63423	901.83319	1867.85339	-67.24986	862.14410	1793.61951	156.89546	911.59564	1563.20422	277.57303	451.50037	1775.97363	-64.61583	490.46957	1898.31299	354.78244	170.88124	1542.92188	-80.92772	174.82532	1977.35120	
298	2.970	-72.44730	1409.39087	1895.11987				110.68549	1473.31177	1811.92407				263.93750	1274.48303	1796.82751	-128.33322	1238.67468	1623.20508	22.38980	1200.34473	1839.98853	102.19405	1311.53247	1615.33350	373.98901	1000.96912	1828.83289	-117.72284	1006.14154	1506.09705	387.55743	818.25903	1990.42273	-193.96425	779.94550	1420.00598	190.34961	902.61475	1878.82153	-72.99866	862.03137	1804.13013	151.90082	910.03308	1574.11475	274.36905	450.39880	1786.20776	-68.10690	486.72928	1907.21765	355.66864	173.62889	1547.74988	-84.77827	173.61394	1986.32849	
299	2.980	-78.98367	1411.04114	1902.03491				104.15016	1473.74133	1819.03955				257.48026	1273.97290	1806.05066				15.35564	1200.33594	1847.88635	96.52529	1310.55347	1624.17725	366.21307	999.72833	1838.60583	-120.19794	1003.84296	1515.21228	379.15967	814.39227	1994.56970	-195.65373	776.18256	1430.75427	183.37271	904.11591	1890.39709	-78.70931	862.46576	1814.41003	148.14856	908.77850	1586.57764	270.14896	451.10843	1798.39124	-71.94624	484.48322	1915.16211	356.42776	178.92950	1554.17480	-88.10206	171.26675	1994.45581	
